<!DOCTYPE svg PUBLIC "-//W3C//DTD SVG 1.1//EN" "http://www.w3.org/Graphics/SVG/1.1/DTD/svg11.dtd">
<!-- Uploaded to: SVG Repo, www.svgrepo.com, Transformed by: SVG Repo Mixer Tools -->
<svg version="1.1" id="Icons" xmlns="http://www.w3.org/2000/svg" xmlns:xlink="http://www.w3.org/1999/xlink" viewBox="0 0 32 32" xml:space="preserve" width="800px" height="800px" fill="#ffffff" stroke="#ffffff">
<g id="SVGRepo_bgCarrier" stroke-width="0"/>
<g id="SVGRepo_tracerCarrier" stroke-linecap="round" stroke-linejoin="round"/>
<g id="SVGRepo_iconCarrier"> <style type="text/css"> .st0{fill:none;stroke:#000000;stroke-width:2;stroke-linecap:round;stroke-linejoin:round;stroke-miterlimit:10;} </style> <path d="M29.9,17.5C29.7,17.2,29.4,17,29,17c-2.2,0-4.3,1-5.6,2.8L22.5,21c-1.1,1.3-2.8,2-4.5,2h-3c-0.6,0-1-0.4-1-1s0.4-1,1-1h1.9 c1.6,0,3.1-1.3,3.1-2.9c0,0,0-0.1,0-0.1c0-0.5-0.5-1-1-1l-6.1,0c-3.6,0-6.5,1.6-8.1,4.2l-2.7,4.2c-0.2,0.3-0.2,0.7,0,1l3,5 c0.1,0.2,0.4,0.4,0.6,0.5c0.1,0,0.1,0,0.2,0c0.2,0,0.4-0.1,0.6-0.2c3.8-2.5,8.2-3.8,12.7-3.8c3.3,0,6.3-1.8,7.9-4.7l2.7-4.8 C30,18.2,30,17.8,29.9,17.5z"/> <path d="M19,15c0.9,0,1.8,0.5,2.3,1.1c1.7-2,3.7-4.9,3.7-8.1c0-3.9-3.1-7-7-7s-7,3.1-7,7c0,2.6,1.3,5.1,2.7,7H19z M18,5 c1.7,0,3,1.3,3,3s-1.3,3-3,3s-3-1.3-3-3S16.3,5,18,5z"/> </g>
</svg>