<svg id="Group_7338" data-name="Group 7338" xmlns="http://www.w3.org/2000/svg" xmlns:xlink="http://www.w3.org/1999/xlink" width="481.94" height="600" viewBox="0 0 481.94 600">
  <defs>
    <clipPath id="clip-path">
      <rect id="Rectangle_2678" data-name="Rectangle 2678" width="481.94" height="600" fill="none"/>
    </clipPath>
    <clipPath id="clip-path-2">
      <path id="Path_8863" data-name="Path 8863" d="M39.39,107.434l.067.027a.918.918,0,0,0-.071-.182c0,.053,0,.107,0,.156m-.92-.409c-.009.036.116.107.364.2v-.018c-.12-.067-.244-.129-.36-.2l0,.009" transform="translate(-38.47 -107.016)" fill="none"/>
    </clipPath>
  </defs>
  <g id="Group_7333" data-name="Group 7333">
    <g id="Group_7332" data-name="Group 7332" clip-path="url(#clip-path)">
      <path id="Path_8741" data-name="Path 8741" d="M260.2,599.39l-217.028.116A42.428,42.428,0,0,1,.725,557.1L.454,47.336A47.2,47.2,0,0,1,47.626.115L260.321,0a42.793,42.793,0,0,1,42.816,42.772l.271,513.363A43.231,43.231,0,0,1,260.2,599.39" transform="translate(1.564 -0.003)" fill="#443f34"/>
      <path id="Path_8742" data-name="Path 8742" d="M1.794,549.611,1.527,42.653A41.446,41.446,0,0,1,42.947,1.184L253.2,1.073a41.44,41.44,0,0,1,41.469,41.42l.271,506.962a41.453,41.453,0,0,1-41.425,41.469l-210.254.111A41.45,41.45,0,0,1,1.794,549.611" transform="translate(5.261 3.697)" fill="#242522"/>
      <path id="Path_8743" data-name="Path 8743" d="M32.218,10.575a3.367,3.367,0,0,1,0-6.734l43.292-.022a3.367,3.367,0,0,1,0,6.734Z" transform="translate(99.391 13.154)" fill="#443f34"/>
      <path id="Path_8744" data-name="Path 8744" d="M27,10.559A3.367,3.367,0,1,1,30.362,7.19,3.369,3.369,0,0,1,27,10.559" transform="translate(81.403 13.178)" fill="#443f34"/>
      <path id="Path_8745" data-name="Path 8745" d="M29.784,10.558a3.367,3.367,0,1,1,3.365-3.369,3.375,3.375,0,0,1-3.365,3.369" transform="translate(91.005 13.174)" fill="#443f34"/>
      <path id="Path_8746" data-name="Path 8746" d="M47.221,10.548a3.367,3.367,0,1,1,3.365-3.365,3.375,3.375,0,0,1-3.365,3.365" transform="translate(151.079 13.14)" fill="#443f34"/>
      <path id="Path_8747" data-name="Path 8747" d="M44.433,10.55A3.367,3.367,0,1,1,47.8,7.181a3.375,3.375,0,0,1-3.365,3.369" transform="translate(141.474 13.147)" fill="#443f34"/>
      <path id="Path_8748" data-name="Path 8748" d="M250.1,2.633l-40.745.022a8.88,8.88,0,0,0-8.53,6.379L197.5,20.458a9.946,9.946,0,0,1-9.553,7.143l-90.278.049a9.944,9.944,0,0,1-9.557-7.135L84.776,9.1a8.876,8.876,0,0,0-8.535-6.37l-40.749.022A32.359,32.359,0,0,0,3.064,35.043l.267,510.3A32.366,32.366,0,0,0,35.8,577.6l214.61-.111A32.359,32.359,0,0,0,282.836,545.2l-.271-510.3A32.366,32.366,0,0,0,250.1,2.633" transform="translate(10.556 9.071)" fill="#fff"/>
      <path id="Path_8749" data-name="Path 8749" d="M68.555,29.3h0a1.988,1.988,0,0,1,1.987,1.983l.031,64.922a1.982,1.982,0,0,1-1.983,1.983Z" transform="translate(236.186 100.951)" fill="#375a64"/>
      <path id="Path_8750" data-name="Path 8750" d="M2.065,38.889h0A2.054,2.054,0,0,0,.007,40.947l.022,39.5a2.059,2.059,0,0,0,2.058,2.058Z" transform="translate(0.024 133.98)" fill="#242522"/>
      <path id="Path_8751" data-name="Path 8751" d="M2.058,26.07h0A2.056,2.056,0,0,0,0,28.128l.022,39.5A2.059,2.059,0,0,0,2.08,69.686Z" transform="translate(0 89.816)" fill="#242522"/>
      <path id="Path_8752" data-name="Path 8752" d="M1.833,16.448h0A1.776,1.776,0,0,0,.059,18.222l0,16.732a1.777,1.777,0,0,0,1.778,1.774Z" transform="translate(0.203 56.667)" fill="#242522"/>
      <rect id="Rectangle_2674" data-name="Rectangle 2674" width="2.078" height="2.916" transform="translate(225.251 28.332)" fill="#c9cac1"/>
      <rect id="Rectangle_2675" data-name="Rectangle 2675" width="2.078" height="4.214" transform="translate(228.634 27.031)" fill="#c9cac1"/>
      <rect id="Rectangle_2676" data-name="Rectangle 2676" width="2.078" height="5.188" transform="translate(232.019 26.056)" fill="#c9cac1"/>
      <rect id="Rectangle_2677" data-name="Rectangle 2677" width="2.08" height="7.072" transform="translate(235.401 24.17)" fill="#c9cac1"/>
      <path id="Path_8753" data-name="Path 8753" d="M69,12.24l-10.437,0a.748.748,0,0,1-.747-.747l0-5.188a.748.748,0,0,1,.742-.751L69,5.554l.133.058.058.133V7.457l1.116,0,.191.191,0,2.5-.191.191h-1.12l0,1.711Zm-.2-6.3-10.251,0-.36.369,0,5.188.364.365,10.246,0,0-1.711L69,9.955h1.12l0-2.12L69,7.839l-.191-.191Z" transform="translate(199.177 19.135)" fill="#c9cac1"/>
      <path id="Path_8754" data-name="Path 8754" d="M58.091,10.05V5.836l8.9,0,0,1.9v2.316Z" transform="translate(200.135 20.092)" fill="#c9cac1"/>
      <path id="Path_8755" data-name="Path 8755" d="M56.845,7.559a.762.762,0,1,0-.765.765.758.758,0,0,0,.765-.765" transform="translate(190.589 23.424)" fill="#c9cac1"/>
      <path id="Path_8756" data-name="Path 8756" d="M54.906,7.394l.974.973a2.3,2.3,0,0,1,3.254,0l.974-.973a3.676,3.676,0,0,0-5.2,0" transform="translate(189.162 21.753)" fill="#c9cac1"/>
      <path id="Path_8757" data-name="Path 8757" d="M58.7,5.826a5.833,5.833,0,0,0-4.134,1.716l.973.973a4.47,4.47,0,0,1,6.321,0l.974-.973A5.829,5.829,0,0,0,58.7,5.826" transform="translate(187.974 20.072)" fill="#c9cac1"/>
      <path id="Path_8758" data-name="Path 8758" d="M54.2,7.7l.974.973a6.707,6.707,0,0,1,9.49,0l.974-.973A8.081,8.081,0,0,0,54.2,7.7" transform="translate(186.744 18.335)" fill="#c9cac1"/>
      <path id="Path_8759" data-name="Path 8759" d="M51.346,29.5a1.374,1.374,0,0,0,1.631,0L72.426,15.324A4.088,4.088,0,0,0,69.238,13.8H34.366a3.386,3.386,0,0,0-2.654,1.289l.071.031Z" transform="translate(109.254 47.54)" fill="#698037"/>
      <path id="Path_8760" data-name="Path 8760" d="M52.951,19.239a2.552,2.552,0,0,1-3.023,0l-2.969-2.183-15,13.344-.036.022,1.049.213H69.91l.6-.076L55.583,17.319Z" transform="translate(109.974 58.748)" fill="#698037"/>
      <path id="Path_8761" data-name="Path 8761" d="M47.275,25.75,31.717,14.321l-.169,1.062v21.95A2.708,2.708,0,0,0,32.3,39.2l.16-.271Z" transform="translate(108.689 49.339)" fill="#698037"/>
      <path id="Path_8762" data-name="Path 8762" d="M52.452,39.142l.08.1a2.682,2.682,0,0,0,.991-2.076V15.929a4.072,4.072,0,0,0-.311-1.56L37.463,25.855Z" transform="translate(129.068 49.504)" fill="#698037"/>
      <path id="Path_8763" data-name="Path 8763" d="M54.128,19.548a7.381,7.381,0,1,1-7.383-7.383,7.383,7.383,0,0,1,7.383,7.383" transform="translate(135.62 41.911)" fill="#d87928"/>
      <path id="Path_8764" data-name="Path 8764" d="M41.922,18.936h-.809V14.051l-.822.5v-.836l.822-.547h.809Z" transform="translate(138.809 45.376)" fill="#fff"/>
      <path id="Path_8765" data-name="Path 8765" d="M41.37,18.618a1.655,1.655,0,0,1-.418-1.2V14.791a1.648,1.648,0,0,1,.418-1.2,1.969,1.969,0,0,1,2.454,0,1.659,1.659,0,0,1,.418,1.209v2.623A1.477,1.477,0,0,1,42.6,19.049a1.631,1.631,0,0,1-1.227-.431m1.858-.56.2-.645V14.791l-.2-.645-.631-.222-.636.222-.2.645v2.623l.2.645.631.222Z" transform="translate(141.088 45.322)" fill="#fff"/>
      <path id="Path_8766" data-name="Path 8766" d="M188.221,27.853H29.883A15.239,15.239,0,0,0,14.645,43.087v83.485a2.82,2.82,0,0,0,4.85,1.956l15.114-15.687a7.118,7.118,0,0,1,5.139-2.187l148.474-.173a13.161,13.161,0,0,0,13.162-13.162v-56.3a13.161,13.161,0,0,0-13.162-13.162" transform="translate(50.455 95.959)" fill="#c9cac1"/>
      <path id="Path_8767" data-name="Path 8767" d="M188.221,59.841H29.883A15.239,15.239,0,0,0,14.645,75.079V158.56a2.82,2.82,0,0,0,4.85,1.956l15.114-15.687a7.117,7.117,0,0,1,5.139-2.187l148.474-.173a13.161,13.161,0,0,0,13.162-13.162V73a13.161,13.161,0,0,0-13.162-13.162" transform="translate(50.455 206.164)" fill="#7d9144"/>
      <path id="Path_8768" data-name="Path 8768" d="M188.222,90.5H29.88a15.238,15.238,0,0,0-15.234,15.234v83.485a2.82,2.82,0,0,0,4.85,1.956L34.6,175.49a7.135,7.135,0,0,1,5.143-2.187l148.474-.173a13.162,13.162,0,0,0,13.162-13.167V103.669A13.162,13.162,0,0,0,188.222,90.5" transform="translate(50.458 311.798)" fill="#c9cac1"/>
      <path id="Path_8769" data-name="Path 8769" d="M6.8,58.671a14.345,14.345,0,0,0,3,8.8,14.193,14.193,0,0,0,2.111,2.209A14.5,14.5,0,0,0,14.421,71.4,14.438,14.438,0,0,0,29.5,70.5l.351-.253A14.431,14.431,0,1,0,6.8,58.671" transform="translate(23.434 152.423)" fill="#c9cac1"/>
      <path id="Path_8770" data-name="Path 8770" d="M16.4,51.381l-5.374-5.41H9.886v1.151l5.374,5.405H16.4Z" transform="translate(34.06 158.38)" fill="#7d9144"/>
      <path id="Path_8771" data-name="Path 8771" d="M11.313,46.4l-.04.2a8.712,8.712,0,0,1-1.916,3.9l2.925,2.943A8.6,8.6,0,0,1,16.14,51.5l.2-.04Z" transform="translate(32.237 159.85)" fill="#7d9144"/>
      <path id="Path_8772" data-name="Path 8772" d="M11.061,47.459l-2,2a1.234,1.234,0,0,0,0,1.729L10.2,52.344a1.2,1.2,0,0,0,1.711,0l2-2.018Zm.284,3.161h-.569v-.573l.569-.578h.569v.578Z" transform="translate(29.999 163.506)" fill="#7d9144"/>
      <path id="Path_8773" data-name="Path 8773" d="M12.229,50.687l.551-.551a1.229,1.229,0,0,0,0-1.725L12.371,48l-.653.493.489.489v.573l-.556.565-.822-.8L9.686,50.469l1.831,1.787H12.66V51.109Z" transform="translate(33.37 165.377)" fill="#7d9144"/>
      <path id="Path_8774" data-name="Path 8774" d="M10.938,45.893l-.4.4v.813l.4.409.4-.409V46.3Z" transform="translate(36.291 158.111)" fill="#7d9144"/>
      <path id="Path_8775" data-name="Path 8775" d="M12.288,46.624h-.809l-.4.4.4.409h.809l.4-.409Z" transform="translate(38.17 160.63)" fill="#7d9144"/>
      <path id="Path_8776" data-name="Path 8776" d="M12.3,46.1h-.569l-.809.813v.573h.569l.809-.813Z" transform="translate(37.634 158.833)" fill="#7d9144"/>
      <path id="Path_8777" data-name="Path 8777" d="M6.8,90.624a14.345,14.345,0,0,0,3,8.8,14.194,14.194,0,0,0,2.111,2.209,14.5,14.5,0,0,0,2.512,1.716,14.438,14.438,0,0,0,15.083-.9l.351-.253A14.431,14.431,0,1,0,6.8,90.624" transform="translate(23.434 262.507)" fill="#7d9144"/>
      <path id="Path_8778" data-name="Path 8778" d="M16.4,83.334l-5.374-5.41H9.886v1.151l5.374,5.405H16.4Z" transform="translate(34.06 268.465)" fill="#fff"/>
      <path id="Path_8779" data-name="Path 8779" d="M11.313,78.352l-.04.2a8.712,8.712,0,0,1-1.916,3.9L12.282,85.4a8.6,8.6,0,0,1,3.858-1.943l.2-.04Z" transform="translate(32.237 269.938)" fill="#fff"/>
      <path id="Path_8780" data-name="Path 8780" d="M11.061,79.412l-2,2.009a1.229,1.229,0,0,0,0,1.725L10.2,84.3a1.2,1.2,0,0,0,1.711,0l2-2.014Zm.284,3.161h-.569V82l.569-.573h.569V82Z" transform="translate(29.999 273.59)" fill="#fff"/>
      <path id="Path_8781" data-name="Path 8781" d="M12.229,82.64l.551-.551a1.229,1.229,0,0,0,0-1.725l-.409-.409-.653.493.489.489v.573l-.556.565-.822-.8L9.686,82.422l1.831,1.787H12.66V83.062Z" transform="translate(33.37 275.461)" fill="#fff"/>
      <path id="Path_8782" data-name="Path 8782" d="M10.938,77.846l-.4.4v.813l.4.409.4-.409v-.813Z" transform="translate(36.291 268.197)" fill="#fff"/>
      <path id="Path_8783" data-name="Path 8783" d="M12.288,78.577h-.809l-.4.4.4.409h.809l.4-.409Z" transform="translate(38.17 270.715)" fill="#fff"/>
      <path id="Path_8784" data-name="Path 8784" d="M12.3,78.056h-.569l-.809.813v.573h.569l.809-.813Z" transform="translate(37.634 268.918)" fill="#fff"/>
      <path id="Path_8785" data-name="Path 8785" d="M6.8,121.749a14.345,14.345,0,0,0,3,8.8,14.194,14.194,0,0,0,2.111,2.209,14.494,14.494,0,0,0,2.512,1.716,14.438,14.438,0,0,0,15.083-.9l.351-.253A14.431,14.431,0,1,0,6.8,121.749" transform="translate(23.434 369.739)" fill="#c9cac1"/>
      <path id="Path_8786" data-name="Path 8786" d="M16.4,114.46l-5.374-5.41H9.886V110.2l5.374,5.405H16.4Z" transform="translate(34.06 375.699)" fill="#7d9144"/>
      <path id="Path_8787" data-name="Path 8787" d="M11.313,109.477l-.04.2a8.712,8.712,0,0,1-1.916,3.9l2.925,2.943a8.594,8.594,0,0,1,3.858-1.943l.2-.04Z" transform="translate(32.237 377.17)" fill="#7d9144"/>
      <path id="Path_8788" data-name="Path 8788" d="M11.061,110.537l-2,2.009a1.229,1.229,0,0,0,0,1.725l1.142,1.151a1.2,1.2,0,0,0,1.711,0l2-2.014Zm.284,3.161h-.569v-.573l.569-.573h.569v.573Z" transform="translate(29.999 380.822)" fill="#7d9144"/>
      <path id="Path_8789" data-name="Path 8789" d="M12.229,113.765l.551-.551a1.229,1.229,0,0,0,0-1.725l-.409-.409-.653.493.489.489v.573l-.556.565-.822-.8-1.142,1.147,1.831,1.787H12.66v-1.147Z" transform="translate(33.37 382.693)" fill="#7d9144"/>
      <path id="Path_8790" data-name="Path 8790" d="M10.938,108.972l-.4.4v.813l.4.409.4-.409v-.813Z" transform="translate(36.291 375.43)" fill="#7d9144"/>
      <path id="Path_8791" data-name="Path 8791" d="M12.288,109.7h-.809l-.4.4.4.409h.809l.4-.409Z" transform="translate(38.17 377.948)" fill="#7d9144"/>
      <path id="Path_8792" data-name="Path 8792" d="M12.3,109.181h-.569l-.809.813v.573h.569l.809-.813Z" transform="translate(37.634 376.152)" fill="#7d9144"/>
      <path id="Path_8793" data-name="Path 8793" d="M18.926,118.883l-.556-.7V97.871l.556-.7.556.516v20.684Z" transform="translate(63.289 334.765)" fill="#fff"/>
      <path id="Path_8794" data-name="Path 8794" d="M19.6,134.494l-.556-.8V95.985l.556-.8.556.485v38.34Z" transform="translate(65.622 327.948)" fill="#fff"/>
      <path id="Path_8795" data-name="Path 8795" d="M20.282,109.939l-.556-.7V99l.556-.7.556.627v10.384Z" transform="translate(67.962 338.67)" fill="#fff"/>
      <path id="Path_8796" data-name="Path 8796" d="M20.967,110.823l-.56-.729V98.919l.56-.729.56.653V110.17Z" transform="translate(70.305 338.284)" fill="#fff"/>
      <path id="Path_8797" data-name="Path 8797" d="M21.649,116.642l-.56-.773V98.222l.56-.769.56.662V115.98Z" transform="translate(72.656 335.744)" fill="#fff"/>
      <path id="Path_8798" data-name="Path 8798" d="M22.333,120.254a.764.764,0,0,1-.56-.8V97.8a.77.77,0,0,1,.56-.8c.311-.036.56.271.56.68v21.9c0,.413-.249.716-.56.68" transform="translate(75.012 334.165)" fill="#fff"/>
      <path id="Path_8799" data-name="Path 8799" d="M23.019,112.485a.739.739,0,0,1-.56-.8V98.776a.739.739,0,0,1,.56-.8c.311-.022.565.307.565.729v13.047c0,.422-.253.751-.565.729" transform="translate(77.376 337.557)" fill="#fff"/>
      <path id="Path_8800" data-name="Path 8800" d="M23.71,127.348a.816.816,0,0,1-.565-.853V96.948a.814.814,0,0,1,.565-.849c.311-.04.565.28.565.711v29.823c0,.436-.253.756-.565.716" transform="translate(79.739 331.067)" fill="#fff"/>
      <path id="Path_8801" data-name="Path 8801" d="M24.4,128.022c-.311-.036-.565-.427-.565-.867V96.879a.826.826,0,0,1,.565-.867c.311-.036.565.293.565.738v30.534c0,.445-.253.773-.565.738" transform="translate(82.113 330.772)" fill="#fff"/>
      <path id="Path_8802" data-name="Path 8802" d="M25.089,112.883c-.311-.018-.565-.4-.565-.845V98.774c0-.449.253-.831.565-.845s.565.338.565.791v13.367c0,.458-.253.813-.565.8" transform="translate(84.49 337.385)" fill="#fff"/>
      <path id="Path_8803" data-name="Path 8803" d="M25.78,111.423c-.311-.013-.565-.4-.565-.854v-11.6c0-.462.253-.845.565-.858s.569.356.569.818V110.61c0,.462-.253.827-.569.813" transform="translate(86.871 338.022)" fill="#fff"/>
      <path id="Path_8804" data-name="Path 8804" d="M26.475,114.548c-.311-.013-.569-.4-.569-.871V98.59c0-.467.258-.858.569-.871s.569.356.569.827v15.176c0,.471-.253.84-.569.827" transform="translate(89.251 336.658)" fill="#fff"/>
      <path id="Path_8805" data-name="Path 8805" d="M27.168,113.593c-.316-.013-.569-.4-.569-.88V98.719c0-.476.253-.871.569-.88s.569.365.569.845v14.065c0,.48-.253.858-.569.845" transform="translate(91.639 337.075)" fill="#fff"/>
      <path id="Path_8806" data-name="Path 8806" d="M27.861,111.979c-.316-.009-.569-.409-.569-.889V98.932c0-.484.253-.88.569-.889s.569.378.569.858v12.215c0,.485-.253.871-.569.862" transform="translate(94.026 337.778)" fill="#fff"/>
      <path id="Path_8807" data-name="Path 8807" d="M28.556,110.91c-.316-.009-.569-.409-.569-.9V99.077c0-.489.253-.889.569-.9s.569.387.569.876v10.98c0,.493-.253.885-.569.876" transform="translate(96.421 338.246)" fill="#fff"/>
      <path id="Path_8808" data-name="Path 8808" d="M29.251,142.334c-.316-.022-.569-.44-.569-.933V95.13c0-.493.253-.911.569-.933s.569.36.569.858v46.421c0,.5-.253.88-.569.858" transform="translate(98.815 324.524)" fill="#fff"/>
      <path id="Path_8809" data-name="Path 8809" d="M29.947,130.92c-.316-.013-.569-.427-.569-.925V96.563c0-.493.253-.907.569-.92s.569.378.569.876V130.04c0,.5-.253.894-.569.88" transform="translate(101.213 329.509)" fill="#fff"/>
      <path id="Path_8810" data-name="Path 8810" d="M30.643,118.043c-.316,0-.569-.418-.569-.916V98.2c0-.5.253-.911.569-.92s.569.4.569.9v18.972c0,.5-.253.9-.569.9" transform="translate(103.611 335.132)" fill="#fff"/>
      <path id="Path_8811" data-name="Path 8811" d="M31.339,110.618c-.316,0-.569-.413-.569-.916V99.132c0-.5.253-.916.569-.916s.569.4.569.907v10.588c0,.5-.253.911-.569.907" transform="translate(106.009 338.374)" fill="#fff"/>
      <path id="Path_8812" data-name="Path 8812" d="M32.039,116.307c-.316,0-.573-.413-.573-.92V98.415c0-.507.258-.916.573-.92s.569.4.569.911V115.4c0,.507-.253.916-.569.911" transform="translate(108.407 335.89)" fill="#fff"/>
      <path id="Path_8813" data-name="Path 8813" d="M32.74,116.962c-.316,0-.578-.413-.578-.916V98.328c0-.5.262-.916.578-.916s.565.409.565.916v17.719c0,.507-.253.916-.565.916" transform="translate(110.805 335.604)" fill="#fff"/>
      <path id="Path_8814" data-name="Path 8814" d="M33.429,128.6c-.316,0-.569-.409-.569-.916V96.853c0-.507.253-.916.569-.916s.573.413.573.92V127.68c0,.507-.258.92-.573.92" transform="translate(113.209 330.522)" fill="#fff"/>
      <path id="Path_8815" data-name="Path 8815" d="M34.126,149.592c-.316.009-.569-.4-.569-.9V94.178c0-.5.253-.907.569-.9s.573.422.573.929v54.463c0,.5-.258.916-.573.925" transform="translate(115.611 321.355)" fill="#fff"/>
      <path id="Path_8816" data-name="Path 8816" d="M34.823,113.747c-.316,0-.569-.4-.569-.907V98.722c0-.5.253-.907.569-.9s.569.413.569.916v14.1c0,.5-.253.911-.569.916" transform="translate(118.012 337.01)" fill="#fff"/>
      <path id="Path_8817" data-name="Path 8817" d="M35.519,114.3c-.316,0-.569-.4-.569-.9V98.647c0-.5.253-.9.569-.9s.569.413.569.916v14.722c0,.5-.253.911-.569.916" transform="translate(120.41 336.765)" fill="#fff"/>
      <path id="Path_8818" data-name="Path 8818" d="M36.215,121.018c-.316.009-.569-.387-.569-.885V97.783c0-.5.253-.893.569-.885s.569.418.569.916V120.1c0,.5-.253.907-.569.916" transform="translate(122.808 333.833)" fill="#fff"/>
      <path id="Path_8819" data-name="Path 8819" d="M36.911,124.529c-.316.013-.569-.378-.569-.871V97.325c0-.493.253-.885.569-.871s.569.422.569.916v26.244c0,.493-.253.9-.569.916" transform="translate(125.206 332.3)" fill="#fff"/>
      <path id="Path_8820" data-name="Path 8820" d="M37.606,114.556c-.316.009-.569-.382-.569-.871v-15.1c0-.489.253-.876.569-.867s.569.413.569.9v15.043c0,.485-.253.889-.569.9" transform="translate(127.6 336.655)" fill="#fff"/>
      <path id="Path_8821" data-name="Path 8821" d="M38.3,130.609c-.316.022-.569-.351-.569-.836V96.518c0-.485.253-.858.569-.836s.569.431.569.911v33.1c0,.48-.253.889-.569.911" transform="translate(129.991 329.643)" fill="#fff"/>
      <path id="Path_8822" data-name="Path 8822" d="M38.994,130.2c-.316.027-.569-.342-.569-.818V96.554c0-.476.253-.845.569-.818s.569.431.569.907v32.646c0,.476-.253.88-.569.907" transform="translate(132.382 329.825)" fill="#fff"/>
      <path id="Path_8823" data-name="Path 8823" d="M39.687,113.38c-.316.013-.569-.36-.569-.831V98.693c0-.471.253-.84.569-.827s.569.4.569.871v13.771c0,.467-.258.858-.569.871" transform="translate(134.769 337.168)" fill="#fff"/>
      <path id="Path_8824" data-name="Path 8824" d="M40.379,111.423c-.316.013-.565-.351-.569-.813V98.932c0-.462.253-.831.569-.818s.565.4.565.858v11.6c0,.458-.253.84-.565.854" transform="translate(137.154 338.022)" fill="#fff"/>
      <path id="Path_8825" data-name="Path 8825" d="M41.067,114.008c-.311.018-.565-.338-.565-.791V98.579c0-.458.253-.809.565-.791s.565.4.565.845v14.527c0,.453-.253.831-.565.849" transform="translate(139.538 336.895)" fill="#fff"/>
      <path id="Path_8826" data-name="Path 8826" d="M41.757,112.6c-.311.018-.565-.329-.565-.773V98.739c0-.445.253-.791.565-.773s.565.387.565.827v12.976c0,.444-.253.813-.565.831" transform="translate(141.915 337.509)" fill="#fff"/>
      <path id="Path_8827" data-name="Path 8827" d="M42.445,110.677c-.311.018-.565-.324-.565-.756V98.964c0-.436.253-.773.565-.756s.565.378.565.809v10.851c0,.431-.253.791-.565.809" transform="translate(144.285 338.346)" fill="#fff"/>
      <path id="Path_8828" data-name="Path 8828" d="M43.133,109.34c-.311.018-.565-.316-.565-.738V99.116c0-.427.253-.756.565-.738s.56.365.56.782v9.393a.725.725,0,0,1-.56.787" transform="translate(146.655 338.932)" fill="#fff"/>
      <path id="Path_8829" data-name="Path 8829" d="M43.814,135.006c-.311.062-.56-.222-.56-.631V95.764c0-.409.249-.693.56-.631a.849.849,0,0,1,.56.849v38.175a.849.849,0,0,1-.56.849" transform="translate(149.019 327.722)" fill="#fff"/>
      <path id="Path_8830" data-name="Path 8830" d="M44.5,124.525l-.56-.636v-26.8l.56-.636.56.8v26.471Z" transform="translate(151.378 332.301)" fill="#fff"/>
      <path id="Path_8831" data-name="Path 8831" d="M45.181,113.676l-.56-.645V98.468l.56-.64.56.742v14.362Z" transform="translate(153.729 337.039)" fill="#fff"/>
      <path id="Path_8832" data-name="Path 8832" d="M45.859,107.655l-.556-.636V99.231l.556-.64.556.7v7.672Z" transform="translate(156.079 339.666)" fill="#fff"/>
      <path id="Path_8833" data-name="Path 8833" d="M46.538,111.261l-.556-.591V98.721l.556-.587.556.685v11.753Z" transform="translate(158.419 338.093)" fill="#fff"/>
      <path id="Path_8834" data-name="Path 8834" d="M47.215,111.147l-.556-.556V98.7l.556-.556.556.662v11.673Z" transform="translate(160.752 338.143)" fill="#fff"/>
      <path id="Path_8835" data-name="Path 8835" d="M61.505,114.181a23.474,23.474,0,0,0-9.415-18.8l-1.649,1.645a21.174,21.174,0,0,1,0,34.308l1.649,1.645a23.473,23.473,0,0,0,9.415-18.8" transform="translate(173.779 328.61)" fill="#fff"/>
      <path id="Path_8836" data-name="Path 8836" d="M58.347,110.208a16.342,16.342,0,0,0-7.4-13.673L49.283,98.2a14.041,14.041,0,0,1,0,24.013l1.667,1.667a16.343,16.343,0,0,0,7.4-13.673" transform="translate(169.79 332.583)" fill="#fff"/>
      <path id="Path_8837" data-name="Path 8837" d="M55.369,106.14a9.214,9.214,0,0,0-5.5-8.424l-1.8,1.8a6.9,6.9,0,0,1,0,13.256l1.8,1.8a9.214,9.214,0,0,0,5.5-8.424" transform="translate(165.625 336.651)" fill="#fff"/>
      <path id="Path_8838" data-name="Path 8838" d="M106.519,88.654l-.2,80.511L70.74,161.849,40.8,155.594s41.02,80.88,85.632,80.88,50.391-67.309,50.391-67.309l2.623-80.511Z" transform="translate(140.554 305.431)" fill="#ffba94"/>
      <path id="Path_8839" data-name="Path 8839" d="M222.729,123.716c-3.312,1.854-7.757-.547-9.259-4.032s-.8-7.517.338-11.135,2.729-7.17,2.961-10.957a16.16,16.16,0,0,0-10.846-15.878c6.441-5.112,6.97-16.061,1.053-21.768-2.769-2.667-6.459-4.121-9.677-6.214a33.8,33.8,0,0,1-5.1-4.161,20.687,20.687,0,0,0,8.779.276,14.218,14.218,0,0,0,10.313-9.033,12.9,12.9,0,0,0-3.116-13.207A11.805,11.805,0,0,0,194.9,25.641c-4.165,2.2-6.446,6.726-8.473,10.971q-.94,1.98-1.88,3.952c-5.859-7.766-11.366-15.785-20.408-18.514-8.193-2.472-17.007.289-25.542-.333-6.223-.449-12.189-2.694-18.39-3.374s-13.251.645-16.914,5.694c-2.147,2.965-2.823,6.8-5,9.748-4.49,6.081-14.162,6.908-17.856,13.5-3,5.361-.689,12.131-1.978,18.136-1.4,6.534-6.783,11.309-11.2,16.323s-8.241,11.913-5.77,18.123c2.174,5.459,8.544,8.4,10.62,13.9,1.516,4.014.413,8.468.333,12.753s1.645,9.375,5.819,10.344L125.8,149.422c16.372,6.659,33.259,13.424,50.938,13.4s36.54-8.508,43.514-24.746a10.184,10.184,0,0,1-6.828-3.058,17,17,0,0,0,9.3-11.3" transform="translate(209.176 62.627)" fill="#443f34"/>
      <path id="Path_8840" data-name="Path 8840" d="M94.51,113.464c3.921-12.06,7.788-24.209,9.575-36.757s1.4-25.64-3.009-37.526c-.671-1.8-6.379-13.887-8.295-13.7-1.365.133,2.151,11.406,1.458,12.6C87.642,49.409,85.85,63.038,86.9,76.1s3.77,24.826,7.606,37.362" transform="translate(298.433 87.792)" fill="#443f34"/>
      <path id="Path_8841" data-name="Path 8841" d="M127.537,233.884c19.652-.413,41.954-43.376,41.954-43.376l1.28-110.365c1.031-31.783-16.6-58.872-48.4-59.028l-2.938.16A56.844,56.844,0,0,0,65.638,76.5c-.742,27.556-1.209,58.005-.24,72.715,2.014,30.445,32.739,33.548,32.739,33.548.067,0,.173,7.072.267,16.025.209,20.115,21.257,35.788,29.134,35.1" transform="translate(223.42 72.742)" fill="#ffba94"/>
      <path id="Path_8842" data-name="Path 8842" d="M72.339,57.479l.009,7.708.16.009c-.067-4.65-.124-7.717-.169-7.717" transform="translate(249.222 198.027)" fill="#fdcbc1"/>
      <path id="Path_8843" data-name="Path 8843" d="M111.381,54.362C91.876,68.124,72.864,68.218,72.348,68.218h-.009c.044,0,.1,3.067.169,7.717.676.022,1.338.031,2,.031,28.792,0,36.877-21.6,36.877-21.6" transform="translate(249.222 187.288)" fill="#fda687"/>
      <path id="Path_8844" data-name="Path 8844" d="M67.987,42.181a4.357,4.357,0,0,0,4.432,4.165,4.165,4.165,0,0,0,4.272-4.165,4.355,4.355,0,0,0-4.423-4.165,4.17,4.17,0,0,0-4.281,4.165" transform="translate(234.225 130.973)" fill="#443f34"/>
      <path id="Path_8845" data-name="Path 8845" d="M66.708,40.252c.569.538,3.734-2.08,8.419-2.316,4.672-.307,8.237,1.916,8.713,1.316.24-.267-.365-1.262-1.92-2.272A11.955,11.955,0,0,0,74.9,35.225a11.5,11.5,0,0,0-6.663,2.552c-1.382,1.182-1.814,2.236-1.534,2.476" transform="translate(229.543 121.286)" fill="#443f34"/>
      <path id="Path_8846" data-name="Path 8846" d="M77.475,41.928a4.357,4.357,0,0,0,4.432,4.165,4.165,4.165,0,0,0,4.272-4.165,4.356,4.356,0,0,0-4.427-4.165,4.166,4.166,0,0,0-4.276,4.165" transform="translate(266.913 130.101)" fill="#443f34"/>
      <path id="Path_8847" data-name="Path 8847" d="M77.046,40.124c.569.538,3.743-2.076,8.419-2.316,4.676-.307,8.241,1.92,8.717,1.32.236-.271-.364-1.262-1.925-2.271a11.954,11.954,0,0,0-7.015-1.76,11.5,11.5,0,0,0-6.663,2.552c-1.378,1.182-1.809,2.236-1.534,2.476" transform="translate(265.168 120.85)" fill="#443f34"/>
      <path id="Path_8848" data-name="Path 8848" d="M83.03,74.835c.009-.267-2.929-.613-7.677-.965-1.2-.058-2.347-.236-2.592-1.04-.329-.849.1-2.165.609-3.587q1.447-4.427,3.045-9.295c4.214-13.224,7.2-24.071,6.663-24.24s-4.383,10.424-8.6,23.648q-1.514,4.887-2.9,9.339c-.378,1.382-1.071,2.965-.364,4.725a3.014,3.014,0,0,0,2.058,1.645,8.231,8.231,0,0,0,2.045.173c4.761,0,7.7-.138,7.708-.4" transform="translate(244.315 123.016)" fill="#443f34"/>
      <path id="Path_8849" data-name="Path 8849" d="M87.829,45.072c-.765,0-.5,5.081-4.659,8.922s-9.6,3.57-9.6,4.281c-.053.324,1.258.925,3.552.862a12.638,12.638,0,0,0,8.024-3.289,11.023,11.023,0,0,0,3.583-7.459c.08-2.134-.556-3.365-.9-3.316" transform="translate(253.469 155.278)" fill="#443f34"/>
      <path id="Path_8850" data-name="Path 8850" d="M76.84,35.052c.529,1.249,5.174.4,10.7.765,5.539.253,10.055,1.623,10.722.445.293-.565-.542-1.72-2.4-2.858a18.651,18.651,0,0,0-16.318-.92c-1.974.92-2.934,1.978-2.7,2.569" transform="translate(264.614 106.906)" fill="#443f34"/>
      <path id="Path_8851" data-name="Path 8851" d="M67,36.926c.88,1.018,4.045-.258,7.921-.516,3.867-.4,7.2.329,7.9-.822.3-.56-.271-1.6-1.76-2.525a11.492,11.492,0,0,0-12.749,1.076C67,35.308,66.613,36.429,67,36.926" transform="translate(230.344 108.943)" fill="#443f34"/>
      <path id="Path_8852" data-name="Path 8852" d="M88.391,40.546c.507-.253,20.6-7.317,21.052,13.549S88.853,71.111,88.8,70.515s-.413-29.97-.413-29.97" transform="translate(304.525 135.031)" fill="#ffba94"/>
      <path id="Path_8853" data-name="Path 8853" d="M89.893,57.291c.089-.067.369.244.991.516a3.623,3.623,0,0,0,2.716,0c2.187-.858,3.97-4.4,3.987-8.161a12.013,12.013,0,0,0-1.129-5.179c-.671-1.511-1.68-2.56-2.8-2.734a1.856,1.856,0,0,0-2.125,1.045c-.267.591-.124,1-.236,1.04-.058.053-.453-.338-.3-1.2a2.315,2.315,0,0,1,.791-1.325,2.737,2.737,0,0,1,2-.573c1.614.076,3.094,1.525,3.867,3.152a12.3,12.3,0,0,1,1.387,5.788c-.04,4.21-2.111,8.188-5.107,9.126A3.887,3.887,0,0,1,90.6,58.3c-.658-.5-.778-.965-.707-1" transform="translate(309.637 140.214)" fill="#896357"/>
      <path id="Path_8854" data-name="Path 8854" d="M68.494,44.64c-3.4-1.818,6.592-12.887,14.847-16.758,12.469-5.854,31.579-9.6,43.19-6.472,13.976,3.77,25.631,10.548,32.783,23.133s9.975,27.32,9.753,41.794c-.067,4.414-.467,9.024-2.778,12.789-2.854,4.65-8.41,7.628-8.081,13.989a8.746,8.746,0,0,1-2.089,6.4c-3.765,4.112-8.486.356-10.682-3.445-4.69-8.112-5.325-17.865-5.85-27.222-.373-6.654-.729-13.451,1.067-19.866.973-3.489,2.574-6.8,3.356-10.34s.622-7.544-1.614-10.4a13.47,13.47,0,0,0-1.716-1.689,21.764,21.764,0,0,0-21.648-3.836c-11.7,4.307-31.685,10.775-36.98,6.854-7.615-5.641-9.464-9.357-9.464-9.357Z" transform="translate(233.624 69.859)" fill="#443f34"/>
      <path id="Path_8855" data-name="Path 8855" d="M118.056,21.763c-11.518-3.69-24.569-3.321-35.233,2.387-5.659,3.027-10.744,7.815-12.4,14.016S71.5,51.937,77.476,54.284l.409.253c8.944,2.88,14.714,1.614,23.555-1.574,7.432-2.68,14.02-7.375,21.466-10.019a42.388,42.388,0,0,1,24.818-1.04c-8.1-8.979-18.15-16.452-29.667-20.141" transform="translate(240.97 66.687)" fill="#443f34"/>
      <path id="Path_8856" data-name="Path 8856" d="M120.347,32.631c-.178.16-1.858-1.836-5.25-4.192a30.512,30.512,0,0,0-6.33-3.387,19.559,19.559,0,0,0-8.486-1.418,28.389,28.389,0,0,0-14.549,6c-3.227,2.565-4.725,4.712-4.925,4.561-.067-.053.227-.64.911-1.6A22.451,22.451,0,0,1,85.1,28.875a26.965,26.965,0,0,1,15.065-6.632,19.759,19.759,0,0,1,9.077,1.618,27.611,27.611,0,0,1,6.441,3.787c3.352,2.64,4.783,4.9,4.663,4.983" transform="translate(278.365 76.45)" fill="#242522"/>
      <path id="Path_8857" data-name="Path 8857" d="M110.931,26.205c.147.036-.2,2.387-1.587,5.957A43.381,43.381,0,0,1,89.861,54.108c-3.378,1.8-5.672,2.427-5.721,2.285-.249-.4,8.761-3.827,16.332-12.487,7.7-8.544,10.028-17.9,10.46-17.7" transform="translate(289.862 90.272)" fill="#242522"/>
      <path id="Path_8858" data-name="Path 8858" d="M120.39,26.963a6.986,6.986,0,0,1,.084,2.374,37.022,37.022,0,0,1-.911,6.414,43.585,43.585,0,0,1-27.12,31.108,37.028,37.028,0,0,1-6.223,1.774,7.147,7.147,0,0,1-2.365.244c-.053-.244,3.281-.822,8.219-2.934A47.083,47.083,0,0,0,108.868,53.8a47.029,47.029,0,0,0,9.739-18.292c1.414-5.183,1.534-8.566,1.783-8.544" transform="translate(288.893 92.893)" fill="#242522"/>
      <path id="Path_8859" data-name="Path 8859" d="M98.687,19.5c.049.231-2.165.742-5.525,2.085A45.329,45.329,0,0,0,71.749,39.228c-1.956,3.045-2.885,5.116-3.1,5.028-.138-.053.471-2.28,2.258-5.534A39.513,39.513,0,0,1,92.824,20.661c3.538-1.134,5.841-1.3,5.863-1.156" transform="translate(236.437 67.043)" fill="#242522"/>
      <path id="Path_8860" data-name="Path 8860" d="M105.8,20.06c.347-.009-.565,6.045-5.29,11.611-4.667,5.619-10.468,7.566-10.522,7.223-.209-.382,5.045-2.792,9.455-8.121,4.481-5.259,5.943-10.851,6.357-10.713" transform="translate(310.022 69.102)" fill="#242522"/>
      <path id="Path_8861" data-name="Path 8861" d="M65.68,111.252l12.38-7.588a13.3,13.3,0,0,1,6.957-1.96h23.955l24.751,22.533,7.388,3.694-2.747,38.913-16.092-1.965s-34.361,1.476-37.686-.738S76.46,154.9,76.46,154.9s-18.843-6.1-20.688-7.761c-6.992-6.268-4.17-7.766-4.17-7.766l-3.218-1.471c-.6,1.138-5.3-6.5-4.805-10.344.289-2.227-.369-2.214-.369-2.214a12.3,12.3,0,0,1-5.921-8.521c-.338-2.271,8.975-.636,8.975-.636l23.266.307Z" transform="translate(128.437 350.391)" fill="#ffba94"/>
      <path id="Path_8862" data-name="Path 8862" d="M106.6,130.719,84.712,100.913a8.559,8.559,0,0,0-6.89-3.489H34.553a3.142,3.142,0,0,0-2.378,5.2L56.965,131.4Z" transform="translate(108.214 335.645)" fill="#443f34"/>
    </g>
  </g>
  <g id="Group_7335" data-name="Group 7335" transform="translate(171.006 475.708)">
    <g id="Group_7334" data-name="Group 7334" clip-path="url(#clip-path-2)">
      <rect id="Rectangle_2679" data-name="Rectangle 2679" width="1" height="0.445" transform="translate(-0.008 0)" fill="#e0ae9f"/>
    </g>
  </g>
  <g id="Group_7337" data-name="Group 7337">
    <g id="Group_7336" data-name="Group 7336" clip-path="url(#clip-path)">
      <path id="Path_8864" data-name="Path 8864" d="M38.675,107.029v.2a.9.9,0,0,1,.076.182c.8.271,2.076.64,3.707,1.031a81.053,81.053,0,0,0,11.735,1.871c2.565.222,5,.307,7.183.307,1.756,0,3.343-.053,4.7-.147,3.032-.2,4.894-.511,4.881-.645a5.365,5.365,0,0,0-1.8-.111c-.8,0-1.858.013-3.107.013h-.387c-2.983,0-6.988-.089-11.375-.467-4.587-.4-8.7-1.027-11.678-1.551-1.751-.307-3.107-.56-3.934-.689" transform="translate(133.243 368.736)" fill="#fda687"/>
      <path id="Path_8865" data-name="Path 8865" d="M40.352,110.11c.124.071.253.142.382.209l.2.053Z" transform="translate(139.021 379.351)" fill="#fdcbc1"/>
      <path id="Path_8866" data-name="Path 8866" d="M40.133,109.974c.311.213.64.418.978.6l.569.262c.578.16,1.236.333,1.969.511a81.574,81.574,0,0,0,11.735,1.871c2.569.218,5.014.307,7.2.307,1.747,0,3.329-.058,4.681-.147,3.032-.2,4.89-.511,4.876-.645a5.457,5.457,0,0,0-1.823-.111c-.8,0-1.845.009-3.081.013h-.485c-2.974,0-6.939-.1-11.282-.467-4.583-.4-8.7-1.027-11.673-1.556-1.574-.276-2.827-.507-3.667-.645" transform="translate(138.266 378.883)" fill="#fda687"/>
      <path id="Path_8867" data-name="Path 8867" d="M37.291,105.107a7.519,7.519,0,0,0,.445,2.818,10.212,10.212,0,0,0,4.832,5.668c.013-.018.062-.027.142-.027a3.575,3.575,0,0,1,.476.044,12.079,12.079,0,0,1-2.618-2.058,9.766,9.766,0,0,1-2.56-3.725c-.164-.445-.285-.84-.378-1.187a11.386,11.386,0,0,1-.338-1.534" transform="translate(128.439 362.115)" fill="#e0ae9f"/>
      <path id="Path_8868" data-name="Path 8868" d="M40.559,111.553a12.223,12.223,0,0,0,2.614,2.058c.093.009.191.027.3.04v-.2l-.169-.08a10.714,10.714,0,0,1-2.743-1.823m-3.276-6.446h0a11.386,11.386,0,0,0,.338,1.534c-.258-.978-.271-1.534-.338-1.534" transform="translate(128.447 362.115)" fill="#fda687"/>
      <path id="Path_8869" data-name="Path 8869" d="M81.889,139.414a15.269,15.269,0,0,0,3.263.48c-.08-.08-.156-.16-.236-.244-1.116-.062-2.134-.138-3.027-.236M44.856,115.264a4.315,4.315,0,0,0,.271,2.689,8.477,8.477,0,0,0,2.343,2.938,28.3,28.3,0,0,0,6.668,3.907,91.441,91.441,0,0,0,15.816,5.059,30.169,30.169,0,0,0,4.912,5.5l.236.218a70.69,70.69,0,0,1-4.81-6.148c-.778-.129-1.231-.289-1.214-.387l.013-.031c-1.307-.427-3.561-1.178-6.094-2.045a78.743,78.743,0,0,1-8.477-3.04l-.231-.1a23.033,23.033,0,0,1-4.707-2.183c-.533-.476-1-.929-1.431-1.351l-.107-.085A8.126,8.126,0,0,1,46.06,117.9a5.609,5.609,0,0,1-1.2-2.636m-2.663-2.858a.192.192,0,0,1-.178.116.347.347,0,0,1-.12-.027,15.267,15.267,0,0,0,3.014,2.094,1.193,1.193,0,0,1,.462-.685c-.084-.044-.169-.084-.244-.129a8.585,8.585,0,0,1-2.534-.907c0-.022.053-.036.138-.036a4.134,4.134,0,0,1,.507.049l-1.045-.476m-2.809-3.3h-.307a15.674,15.674,0,0,0,1.738,2.316,19.33,19.33,0,0,1-1.431-2.316" transform="translate(134.628 375.896)" fill="#fdcbc1"/>
      <path id="Path_8870" data-name="Path 8870" d="M38.555,107.065a16.855,16.855,0,0,0,1.609,7.744,13.964,13.964,0,0,0,.725,1.334H41.2c-1.187-2.249-2.24-5.125-2-7.046l.009-.085c-.062-.6-.093-1.182-.1-1.742-.222-.08-.409-.147-.551-.2" transform="translate(132.821 368.861)" fill="#e0ae9f"/>
      <path id="Path_8871" data-name="Path 8871" d="M75.825,115.955c-4.218.138-10.651.307-16.732.307-3.516,0-6.917-.053-9.7-.209l.236.249c.813.044,1.618.049,2.392.067q2.88.067,5.7.138,5.634.127,10.975.253l19.741.422c1.934.364,3.81.716,5.61,1.053l.013-.68c-.062-.049-.12-.1-.178-.147l-10.042-1.227c-2.578-.071-5.254-.147-8.01-.227" transform="translate(170.155 399.488)" fill="#fda687"/>
      <path id="Path_8872" data-name="Path 8872" d="M120.7,145.3l10.042,1.227-.009,0c-.476-.1-.96-.2-1.445-.293l-4.343-.809c-1.382-.036-2.8-.076-4.245-.12M71.625,134.957a68.817,68.817,0,0,0,4.81,6.148,15.923,15.923,0,0,0,6.539,3.765c.084.027.169.049.249.071.889.1,1.911.173,3.027.236,2.787.151,6.188.209,9.7.209,6.081,0,12.513-.169,16.732-.311q-3.474-.093-7.112-.2-5.328-.14-10.971-.289c-1.876-.049-3.778-.093-5.7-.147a20.69,20.69,0,0,1-5.645-.578,15.126,15.126,0,0,1-6.357-3.752,29.772,29.772,0,0,1-4.592-5.059c-.249-.027-.48-.062-.685-.093m-7.295-2.463c2.534.867,4.792,1.618,6.094,2.049.071-.093.449-.133,1.058-.173-2.445-.56-4.836-1.182-7.152-1.876m-14.847-6.677q.64.64,1.431,1.351a23.159,23.159,0,0,0,4.707,2.183,27.6,27.6,0,0,1-6.139-3.534M46.7,119.429a1.215,1.215,0,0,0-.458.685l.133.067a4.014,4.014,0,0,0-.182.609,5.609,5.609,0,0,0,1.2,2.636c-.053-.1-.1-.191-.142-.289a3.41,3.41,0,0,1,.036-2.969l.182-.373-.4-.187c-.124-.058-.244-.12-.369-.178M38.735,107.5l-.009.085c-.249,1.92.8,4.8,2,7.046a17.78,17.78,0,0,0,1.427,2.316,14.54,14.54,0,0,0,1.085,1.071.289.289,0,0,0,.116.027.2.2,0,0,0,.178-.116l1.045.476.538.08a14.494,14.494,0,0,1-4.8-5.494,15.66,15.66,0,0,1-1.578-5.49" transform="translate(133.294 370.37)" fill="#fda687"/>
      <path id="Path_8873" data-name="Path 8873" d="M38.609,107.01c-.08,0-.129.009-.138.027.116.067.24.133.365.2v.022c.142.058.329.129.551.2,0-.053,0-.107,0-.16-.124-.227-.267-.231-.271-.231l-.027-.013a3.578,3.578,0,0,0-.476-.044" transform="translate(132.54 368.671)" fill="#ec9f8d"/>
      <path id="Path_8874" data-name="Path 8874" d="M38.608,107.02l.027.013c.009,0,.151,0,.271.236v-.2l-.3-.044" transform="translate(133.012 368.705)" fill="#fc9b80"/>
      <path id="Path_8875" data-name="Path 8875" d="M40.01,109.945c-.089,0-.138.009-.142.036a8.726,8.726,0,0,0,2.534.907c-.124-.067-.253-.138-.378-.209l-1.511-.685a4.081,4.081,0,0,0-.5-.049" transform="translate(137.349 378.783)" fill="#fcaf9f"/>
      <path id="Path_8876" data-name="Path 8876" d="M40.013,109.956l1.507.689c-.333-.191-.658-.4-.969-.609l-.538-.08" transform="translate(137.853 378.821)" fill="#fc9b80"/>
      <path id="Path_8877" data-name="Path 8877" d="M58.629,113.164c-.685,0-3.378.813-6.694,1.245-2.454.342-4.632.387-5.868.462.076.013.151.031.231.049l.2.049.116.173c.089.138.182.271.276.4a19.983,19.983,0,0,0,2.16.116,22.542,22.542,0,0,0,3.018-.2c3.938-.516,6.837-2,6.721-2.245-.013-.031-.071-.049-.164-.049" transform="translate(158.71 389.873)" fill="#fda687"/>
      <path id="Path_8878" data-name="Path 8878" d="M45.84,113.585l-.013.027c-.018.1.431.262,1.214.387l-.022-.027-1.178-.387" transform="translate(157.879 391.323)" fill="#fcaf9f"/>
      <path id="Path_8879" data-name="Path 8879" d="M46.887,113.547a2.444,2.444,0,0,0-1.058.169l1.178.387.022.027q.307.053.68.093c-.089-.133-.182-.267-.271-.4l-.116-.178-.209-.044-.227-.053" transform="translate(157.89 391.192)" fill="#fc9b80"/>
      <path id="Path_8880" data-name="Path 8880" d="M63.612,104.843c-1.774,0-3.961.04-6.33.129-1.1.04-2.16.084-3.161.138l.036.049-1.258.018c-3.7.218-6.277.5-6.268.707.009.178,1.72.267,4.361.267,1.774,0,3.961-.04,6.33-.124,5.894-.213,10.66-.627,10.655-.916-.009-.173-1.725-.267-4.365-.267" transform="translate(160.653 361.205)" fill="#fda687"/>
      <path id="Path_8881" data-name="Path 8881" d="M49.26,104.9l-1.218.067,1.254-.018Z" transform="translate(165.514 361.412)" fill="#986353"/>
      <path id="Path_8882" data-name="Path 8882" d="M53.674,101.946l8.313,7.57v-1.142c-1.814-1.489-3.472-2.8-4.885-3.89s-2.592-1.951-3.427-2.538" transform="translate(184.918 351.225)" fill="#e0ae9f"/>
      <path id="Path_8883" data-name="Path 8883" d="M55.545,103.392v1.142l2.872,2.618c.836.716,1.694,1.454,2.565,2.2,2.076,1.818,4.054,3.547,5.89,5.161a33.431,33.431,0,0,0,5.05,4.045,7.942,7.942,0,0,0,1.667.72c0-.227,0-.453.009-.68a7.912,7.912,0,0,1-1.294-.68,38.941,38.941,0,0,1-4.779-4.125c-1.774-1.636-3.747-3.41-5.85-5.236-2.151-1.867-4.227-3.61-6.13-5.165" transform="translate(191.364 356.206)" fill="#fda687"/>
      <path id="Path_8884" data-name="Path 8884" d="M53.377,101.752l-.018,0c-.093.12,1.6,1.609,4.37,3.978,2.374,2.036,5.161,4.432,8.233,7.068l-2.876-2.618-8.313-7.57a6.731,6.731,0,0,0-1.4-.862" transform="translate(183.819 350.556)" fill="#fda687"/>
      <path id="Path_8885" data-name="Path 8885" d="M101.982,128.484a3.458,3.458,0,0,1-.582-.64l-1.551-1.925c-1.387-1.778-3.281-4.21-5.588-7.175-2.356-3.072-5.134-6.69-8.21-10.7q-2.307-3.027-4.823-6.317a7.372,7.372,0,0,0-3.236-2.271,7.616,7.616,0,0,0-2-.4c-.676-.027-1.436-.009-2.156-.013-11.669-.044-22.23-.084-30-.116-3.761-.049-6.837-.093-9.09-.124-1-.027-1.823-.053-2.472-.071a3.626,3.626,0,0,1-.862-.08,3.626,3.626,0,0,1,.862-.08c.649-.018,1.467-.04,2.472-.071,2.254-.031,5.33-.071,9.09-.124,7.77-.031,18.332-.071,30-.116.742.009,1.436-.013,2.2.018a8.279,8.279,0,0,1,2.209.453,8.1,8.1,0,0,1,3.57,2.516c1.667,2.2,3.272,4.334,4.805,6.366,3.023,4.045,5.757,7.7,8.077,10.8,2.227,3.027,4.054,5.508,5.388,7.326.582.813,1.058,1.48,1.436,2.014a3.629,3.629,0,0,1,.458.733" transform="translate(108.214 338.529)" fill="#242522"/>
      <path id="Path_8886" data-name="Path 8886" d="M37.222,99.654a1.769,1.769,0,1,1-.067.053" transform="translate(125.917 342.159)" fill="#f5f5f5"/>
      <path id="Path_8887" data-name="Path 8887" d="M191.433,57.255l60.944,35.828,11.206,197.776,14.558,111.886H59.1s2.418-136.174,3.169-177.35c.533-28.872-.244-84.828,9.526-119.234,4.161-14.669,44.968-33.619,44.968-33.619,22.315,19.692,47.284,13.811,74.666-15.287" transform="translate(203.625 197.255)" fill="#698037"/>
      <path id="Path_8888" data-name="Path 8888" d="M270.654,124.15c0,.218-47.292.391-105.618.391-58.343,0-105.627-.173-105.627-.391s47.284-.391,105.627-.391c58.326,0,105.618.178,105.618.391" transform="translate(204.676 426.375)" fill="#fff"/>
      <path id="Path_8889" data-name="Path 8889" d="M59.407,116.283l.133.027V116.3Z" transform="translate(204.668 400.619)" fill="#b28267"/>
      <path id="Path_8890" data-name="Path 8890" d="M59.386,116.273l.04.036.053.009.133.018v-.022l-.227-.04" transform="translate(204.597 400.584)" fill="#b28267"/>
      <path id="Path_8891" data-name="Path 8891" d="M59.4,116.282c.062.049.12.1.182.147v-.116l-.138-.027Z" transform="translate(204.631 400.615)" fill="#b1745e"/>
      <path id="Path_8892" data-name="Path 8892" d="M59.395,116.281l0,0,.049,0-.053-.009" transform="translate(204.628 400.612)" fill="#b1745e"/>
      <path id="Path_8893" data-name="Path 8893" d="M244.211,150.164c-16.967.076-40.838.12-67.74.133,4.45.662,8.89,1.382,13.313,2.2,9.993,1.858,20.306,4.218,30.361,4.218a47.976,47.976,0,0,0,15.469-2.343,37.537,37.537,0,0,0,8.6-4.21M59.437,116.283v.142c16.967,14.074,43.163,21.728,64.74,26.08,15.492,3.129,31.232,4.827,46.892,7.015,29.512,0,55.778.058,73.9.133a41.209,41.209,0,0,0,16.123-22.519c-9.108,11.655-22.475,18.705-35.193,18.705a33.207,33.207,0,0,1-4.845-.351c-19.377-2.867-125.715-22.542-161.619-29.205" transform="translate(204.772 400.618)" fill="#495926"/>
      <path id="Path_8894" data-name="Path 8894" d="M84.549,123.759q2.707.38,5.405.778c26.9-.009,50.773-.058,67.74-.129.253-.169.507-.338.76-.511-18.123-.08-44.394-.133-73.906-.138" transform="translate(291.288 426.375)" fill="#b2b2b2"/>
      <path id="Path_8895" data-name="Path 8895" d="M56.771,176.62H209.815l.751-80.654,70.616-9.1s.325,81.894.325,108.765c0,32.237-27.871,54.654-51.267,51.2s-173.47-31.405-173.47-31.405Z" transform="translate(195.587 299.274)" fill="#ffba94"/>
      <path id="Path_8896" data-name="Path 8896" d="M172.147,183.124l-82.3,8.544V95.1s8.081-32.632,36.517-31.268,45.194,32.125,45.786,60.326,0,58.966,0,58.966" transform="translate(309.531 219.771)" fill="#698037"/>
      <path id="Path_8897" data-name="Path 8897" d="M103.657,65.7s-26.373,17.376-33.45,36.531c-7.419,20.088-17.825,85.179-17.825,85.179H89.335Z" transform="translate(180.467 226.35)" fill="#698037"/>
      <path id="Path_8898" data-name="Path 8898" d="M91.091,71.7a22.662,22.662,0,0,1,0,3.525c-.076,2.44-.178,5.677-.3,9.593-.249,8.1-.5,19.288-.462,31.645s.36,23.555.662,31.654c.151,3.912.271,7.148.364,9.588a22.817,22.817,0,0,1,.018,3.525,21.847,21.847,0,0,1-.427-3.5c-.213-2.254-.453-5.53-.7-9.579-.493-8.095-.929-19.3-.974-31.681s.333-23.582.773-31.681c.218-4.05.44-7.326.636-9.584a22.749,22.749,0,0,1,.4-3.5" transform="translate(307.572 247.011)" fill="#505e2b"/>
      <path id="Path_8899" data-name="Path 8899" d="M128.651,65.093c-.036.2-2.76-.533-7.223-.458A32.131,32.131,0,0,0,93.289,81.9c-2.089,3.943-2.672,6.7-2.863,6.646A6.179,6.179,0,0,1,90.76,86.6a26.994,26.994,0,0,1,1.867-5.041,31.126,31.126,0,0,1,28.8-17.665,27.505,27.505,0,0,1,5.343.613,6.277,6.277,0,0,1,1.88.587" transform="translate(311.473 220.08)" fill="#505e2b"/>
      <path id="Path_8900" data-name="Path 8900" d="M61.377,75.935a4.282,4.282,0,0,1,.1,1.089c.027.836.058,1.867.093,3.125.062,2.716.093,6.641.093,11.5.018,9.708-.156,23.115-.44,37.918-.289,14.736-.556,28.067-.747,37.909-.1,4.734-.182,8.624-.244,11.486-.036,1.258-.071,2.294-.1,3.125a4.482,4.482,0,0,1-.111,1.089,4.453,4.453,0,0,1-.1-1.089c-.031-.836-.062-1.867-.093-3.125-.062-2.716-.093-6.641-.093-11.5-.018-9.7.156-23.115.436-37.922.293-14.731.556-28.063.751-37.9.1-4.734.178-8.624.24-11.486.04-1.258.08-2.294.111-3.125a4.559,4.559,0,0,1,.1-1.089" transform="translate(205.802 261.611)" fill="#505e2b"/>
      <path id="Path_8901" data-name="Path 8901" d="M79.32,83.607c0,.213-5.619.342-12.535.28s-12.527-.284-12.527-.5,5.614-.342,12.531-.28,12.531.285,12.531.5" transform="translate(186.93 286.274)" fill="#fff"/>
      <path id="Path_8902" data-name="Path 8902" d="M187.743,78.488c0,.213-28.414.391-63.46.391s-63.464-.178-63.464-.391,28.409-.391,63.464-.391,63.46.178,63.46.391" transform="translate(209.534 269.06)" fill="#fff"/>
      <path id="Path_8903" data-name="Path 8903" d="M171.02,77.921a3.272,3.272,0,0,1-.827-.013c-.636-.053-1.418-.116-2.374-.191-2.165-.187-5.108-.445-8.7-.751-7.343-.609-17.505-1.285-28.743-1.6s-21.426-.191-28.8.009c-3.6.116-6.552.2-8.726.276-.96.022-1.743.044-2.369.058a3.494,3.494,0,0,1-.836-.031,3.5,3.5,0,0,1,.822-.124c.627-.053,1.409-.124,2.369-.209,2.054-.169,5.036-.351,8.721-.52,7.37-.342,17.576-.542,28.836-.24s21.43,1.08,28.774,1.827c3.672.373,6.641.716,8.681,1q1.42.207,2.352.338a3.205,3.205,0,0,1,.813.169" transform="translate(308.866 256.456)" fill="#fff"/>
      <path id="Path_8904" data-name="Path 8904" d="M172.465,89.615c0,.213-18.594-.031-41.509-.551s-41.5-1.116-41.5-1.334,18.59.036,41.514.551,41.5,1.116,41.491,1.334" transform="translate(308.208 301.985)" fill="#fff"/>
      <path id="Path_8905" data-name="Path 8905" d="M192.866,67.677c0,.213-29.334.391-65.513.391s-65.518-.178-65.518-.391,29.329-.391,65.518-.391,65.513.178,65.513.391" transform="translate(213.034 231.814)" fill="#fff"/>
      <path id="Path_8906" data-name="Path 8906" d="M191.335,92.164c0,.213-29.427.391-65.713.391-36.3,0-65.727-.178-65.727-.391s29.423-.391,65.727-.391c36.286,0,65.713.173,65.713.391" transform="translate(206.35 316.177)" fill="#fff"/>
      <path id="Path_8907" data-name="Path 8907" d="M202.373,102.975c0,.213-32,.391-71.47.391s-71.47-.178-71.47-.391,31.992-.391,71.47-.391,71.47.173,71.47.391" transform="translate(204.759 353.423)" fill="#fff"/>
      <path id="Path_8908" data-name="Path 8908" d="M274.9,134.151c0,.218-48.248.391-107.752.391-59.526,0-107.765-.173-107.765-.391s48.239-.391,107.765-.391c59.5,0,107.752.178,107.752.391" transform="translate(204.573 460.83)" fill="#fff"/>
      <path id="Path_8909" data-name="Path 8909" d="M96.194,80.416a353.452,353.452,0,0,0-7.788,50.68c5.477.058,8.61.124,8.61.2s-3.143.133-8.646.191q-1.307,16.589-1.058,33.259a86.8,86.8,0,0,0,1.125,14.345c7.828.049,13.509.107,16.229.173l.418-44.714c-2.809.142-4.579.622-7.388.76-.284-5.619-.427-11.131-.507-16.6-.013-.2-.022-.4-.036-.6-.493-8.095-.933-19.3-.974-31.685q-.007-3.054.013-6.005" transform="translate(300.669 277.049)" fill="#495926"/>
      <path id="Path_8910" data-name="Path 8910" d="M89.553,80.161c-.089.378-.173.756-.262,1.134q-.02,2.947-.013,6.005c.044,12.384.48,23.591.974,31.685.013.2.027.4.036.6-.031-2.009-.049-4.01-.071-6.01-.076-.009-.116-.022-.116-.031s.04-.018.116-.027c-.1-11.029-.089-21.973-.662-33.357" transform="translate(307.573 276.171)" fill="#38421e"/>
      <path id="Path_8911" data-name="Path 8911" d="M89.58,87.665c-.08.009-.116.018-.12.027s.04.022.12.031v-.058" transform="translate(308.208 302.024)" fill="#b2b2b2"/>
      <path id="Path_8912" data-name="Path 8912" d="M103.688,137.482c-2.707.062-8.353.12-16.132.169A40.535,40.535,0,0,0,88.97,143c2,5.859,7.188,10.926,12.789,13.891h1.747Zm.418-44.888h0" transform="translate(301.648 319.005)" fill="#495926"/>
      <path id="Path_8913" data-name="Path 8913" d="M92.5,107.058H90.75c.578.307,1.16.587,1.743.849Z" transform="translate(312.652 368.836)" fill="#b28267"/>
      <path id="Path_8914" data-name="Path 8914" d="M87.551,91.817c-.009.129-.022.258-.031.387,5.5-.058,8.642-.124,8.642-.191s-3.129-.138-8.61-.2" transform="translate(301.524 316.328)" fill="#b2b2b2"/>
      <path id="Path_8915" data-name="Path 8915" d="M87.534,102.614c.031.173.067.347.1.516,7.779-.044,13.424-.107,16.132-.169v-.173c-2.716-.067-8.4-.124-16.229-.173" transform="translate(301.572 353.526)" fill="#b2b2b2"/>
      <path id="Path_8916" data-name="Path 8916" d="M100.7,77.193H31.119a3.959,3.959,0,0,1-3.956-3.956V35.826a3.959,3.959,0,0,1,3.956-3.956H100.7a3.962,3.962,0,0,1,3.956,3.956V73.237a3.962,3.962,0,0,1-3.956,3.956M31.119,35.066a.763.763,0,0,0-.76.76V73.237a.763.763,0,0,0,.76.76H100.7a.763.763,0,0,0,.76-.76V35.826a.763.763,0,0,0-.76-.76Z" transform="translate(93.582 109.799)" fill="#fff"/>
      <path id="Path_8917" data-name="Path 8917" d="M34.69,58.659a1.624,1.624,0,0,1-.867-1.418V35.793a1.6,1.6,0,0,1,2.525-1.3L51.426,45.217a1.6,1.6,0,0,1,0,2.6L36.348,58.544a1.458,1.458,0,0,1-1.658.116m2.329-19.768V54.143l10.726-7.624Z" transform="translate(116.527 117.811)" fill="#fff"/>
      <path id="Path_8918" data-name="Path 8918" d="M38.687,66.8a1.333,1.333,0,1,1,1.3-1.071,1.344,1.344,0,0,1-1.3,1.071" transform="translate(128.706 220.965)" fill="#fff"/>
      <path id="Path_8919" data-name="Path 8919" d="M43.44,79.448a6.939,6.939,0,1,1,6.939-6.939,6.945,6.945,0,0,1-6.939,6.939m0-11.215a4.276,4.276,0,1,0,4.281,4.276,4.285,4.285,0,0,0-4.281-4.276" transform="translate(125.753 225.902)" fill="#fff"/>
      <path id="Path_8920" data-name="Path 8920" d="M95.407,101.036,90.522,82.53V74.564a5.115,5.115,0,0,0-3.334-4.788l-.862-3.254a5.289,5.289,0,0,0-6.454-3.756l-25.4,6.694H37.633a5.109,5.109,0,0,0-5.1,5.1v.769l-1.12.293a5.275,5.275,0,0,0-3.765,6.446l4.885,18.51v7.966a5.115,5.115,0,0,0,3.374,4.8l.822,3.107a5.288,5.288,0,0,0,5.112,3.93,5.21,5.21,0,0,0,1.347-.173l24.982-6.561H85.419a5.109,5.109,0,0,0,5.1-5.1v-.769l1.12-.3a5.275,5.275,0,0,0,3.765-6.446M30.218,81.4a2.586,2.586,0,0,1,.267-1.978,2.619,2.619,0,0,1,1.6-1.218l.445-.116V90.163ZM50.5,110.988H40.1L52.311,93.541l6.01,8.584Zm-7.988,6.65a2.625,2.625,0,0,1-3.209-1.863l-.565-2.125H57.694Zm11.535-6.65L65.86,97.608l11.815,13.38Zm31.374,0h-4.2L66.86,94.714l-1-.449-1,.449-4.73,5.361L53.4,90.456a1.327,1.327,0,0,0-2.178,0l-14.3,20.43a2.446,2.446,0,0,1-1.734-2.338V74.564a2.442,2.442,0,0,1,2.44-2.44H66.722a1.331,1.331,0,1,0,0-2.663H64.851l15.7-4.121A2.629,2.629,0,0,1,83.756,67.2l.6,2.258h-5.6a1.331,1.331,0,0,0,0,2.663h6.668a2.442,2.442,0,0,1,2.44,2.44v33.984A2.442,2.442,0,0,1,85.419,110.988Zm7.148-7.295a2.6,2.6,0,0,1-1.6,1.214l-.445.12V92.95l2.316,8.766a2.607,2.607,0,0,1-.271,1.978" transform="translate(94.63 215.641)" fill="#fff"/>
    </g>
  </g>
</svg>
