<?xml version="1.0" encoding="UTF-8"?>
<svg version="1.1" xmlns="http://www.w3.org/2000/svg" width="96" height="96">
<path d="M0 0 C1.83265411 -0.02409439 1.83265411 -0.02409439 3.70233154 -0.04867554 C5.04275822 -0.06016391 6.38319269 -0.07077229 7.72363281 -0.08056641 C8.39832863 -0.08589008 9.07302444 -0.09121376 9.76816559 -0.09669876 C13.3412004 -0.12342735 16.91420034 -0.14280077 20.48730469 -0.15722656 C23.4400947 -0.17055304 26.3921915 -0.19837983 29.34472656 -0.23925781 C32.9132801 -0.28866309 36.48120605 -0.31335719 40.05008698 -0.32045364 C42.0653373 -0.33040204 44.08042068 -0.36462872 46.09539795 -0.39926147 C56.30279403 -0.37569377 56.30279403 -0.37569377 59.99414062 2.60058594 C62.9676991 6.13226869 63.30753257 7.75857717 63.36962891 12.28173828 C63.38569183 13.34334167 63.40175476 14.40494507 63.41830444 15.49871826 C63.46272144 20.36095589 63.5038257 25.22305615 63.52685547 30.08544922 C63.5434114 32.64999468 63.57069619 35.21449407 63.60888672 37.77880859 C63.66365334 41.47436491 63.68553126 45.16883858 63.70019531 48.86474609 C63.72286469 50.00868835 63.74553406 51.15263062 63.76889038 52.33123779 C63.74532341 61.21390407 63.74532341 61.21390407 60.76904297 64.90087891 C57.15257915 68.09840785 55.61242881 68.30901167 50.8918457 68.22363281 C49.78631851 68.20807343 48.68079132 68.19251404 47.54176331 68.17648315 C46.33978806 68.15868805 45.13781281 68.14089294 43.89941406 68.12255859 C41.35840984 68.11164993 38.81739025 68.10394169 36.27636719 68.09912109 C32.26518581 68.09128532 28.26024188 68.06827688 24.24975586 67.99072266 C7.72237047 66.81537217 7.72237047 66.81537217 -6.69081116 73.20657349 C-8.63741309 75.39226112 -10.27154356 77.71516289 -11.82324219 80.19287109 C-12.15324219 80.19287109 -12.48324219 80.19287109 -12.82324219 80.19287109 C-12.93922576 70.77858147 -13.02800251 61.36453875 -13.08230305 51.94968987 C-13.10836821 47.5776936 -13.14370908 43.20618708 -13.20043945 38.83447266 C-13.2548705 34.61340668 -13.2846859 30.39281096 -13.2976284 26.17142105 C-13.30684851 24.56305668 -13.32485379 22.95471731 -13.35189247 21.3465538 C-13.38833309 19.08887402 -13.39318169 16.83312309 -13.39086914 14.57519531 C-13.4019722 13.29168182 -13.41307526 12.00816833 -13.42451477 10.6857605 C-12.63140255 6.07844369 -11.09251206 4.47676249 -7.82324219 1.19287109 C-5.1327087 -0.15239565 -3.01261941 0.03591072 0 0 Z " fill="#009688" transform="translate(22.8232421875,9.80712890625)"/>
<path d="M0 0 C0.66 0.66 1.32 1.32 2 2 C1.8125 5.5 1.8125 5.5 1 9 C-2.22143276 11.14762184 -3.2595467 11.561068 -7 11 C-9.2855347 8.87208838 -9.92303658 7.52591672 -10.375 4.4375 C-10 2 -10 2 -8.9375 0.125 C-5.82785011 -1.68060316 -3.38260527 -0.79952488 0 0 Z " fill="#F2F9F8" transform="translate(72,39)"/>
<path d="M0 0 C0.66 0.66 1.32 1.32 2 2 C1.8125 5.5 1.8125 5.5 1 9 C-2.22143276 11.14762184 -3.2595467 11.561068 -7 11 C-9.2855347 8.87208838 -9.92303658 7.52591672 -10.375 4.4375 C-10 2 -10 2 -8.9375 0.125 C-5.82785011 -1.68060316 -3.38260527 -0.79952488 0 0 Z " fill="#F2F9F8" transform="translate(52,39)"/>
<path d="M0 0 C0.66 0.66 1.32 1.32 2 2 C1.8125 5.5 1.8125 5.5 1 9 C-2.22143276 11.14762184 -3.2595467 11.561068 -7 11 C-9.2855347 8.87208838 -9.92303658 7.52591672 -10.375 4.4375 C-10 2 -10 2 -8.9375 0.125 C-5.82785011 -1.68060316 -3.38260527 -0.79952488 0 0 Z " fill="#F2F9F8" transform="translate(32,39)"/>
</svg>
